<?xml version="1.0" encoding="UTF-8"?>
<svg width="724px" height="366px" viewBox="0 0 724 366" version="1.1" xmlns="http://www.w3.org/2000/svg" xmlns:xlink="http://www.w3.org/1999/xlink">
    <!-- Generator: Sketch 49.3 (51167) - http://www.bohemiancoding.com/sketch -->
    <title>PICK_UP</title>
    <desc>Created with Sketch.</desc>
    <defs></defs>
    <g id="Page-1" stroke="none" stroke-width="1" fill="none" fill-rule="evenodd">
        <g id="PICK_UP" transform="translate(-3.000000, 0.000000)">
            <path d="M82.46,67.79 C82.46,68.67 81.74,69.39 80.86,69.39 C79.98,69.39 79.26,68.67 79.26,67.79 C79.26,66.91 79.98,66.19 80.86,66.19 C81.75,66.19 82.46,66.91 82.46,67.79" id="Shape" fill="#68A7DD" fill-rule="nonzero"></path>
            <g id="Group" transform="translate(52.000000, 2.000000)" fill-rule="nonzero">
                <rect id="Rectangle-path" fill="#A5CDE2" x="18.33" y="49.96" width="21" height="30.98"></rect>
                <path d="M24.15,19.81 L46.67,19.81 C44.74,8.88 35.19,0.58 23.71,0.58 C10.83,0.58 0.39,11.02 0.39,23.9 C0.39,36.78 10.83,47.22 23.71,47.22 C23.86,47.22 24.01,47.22 24.15,47.21 L24.15,19.81 Z" id="Shape" fill="#E9EAEA"></path>
                <path d="M60.99,66.15 C60.99,67.15 60.18,67.97 59.17,67.97 C58.17,67.97 57.36,67.16 57.36,66.15 C57.36,65.15 58.17,64.34 59.17,64.34 C60.18,64.34 60.99,65.15 60.99,66.15" id="Shape" fill="#68A7DD"></path>
                <path d="M90.03,18.97 L28.33,18.97 C25.25,18.97 22.89,21.33 22.89,24.41 L22.89,42.56 C22.89,43.65 23.62,44.37 24.7,44.37 C25.79,44.37 26.51,43.64 26.51,42.56 L26.51,24.42 C26.51,23.33 27.24,22.61 28.32,22.61 L90.02,22.61 C91.11,22.61 91.83,23.34 91.83,24.42 L91.83,67.97 C91.83,69.06 91.1,69.78 90.02,69.78 L46.47,69.78 C45.38,69.78 44.66,70.51 44.66,71.59 C44.66,72.68 45.39,73.4 46.47,73.4 L50.1,73.4 L50.1,78.84 C50.1,79.93 49.37,80.65 48.29,80.65 L46.48,80.65 C45.39,80.65 44.67,81.38 44.67,82.46 C44.67,83.55 45.4,84.27 46.48,84.27 L71.89,84.27 C72.98,84.27 73.7,83.54 73.7,82.46 C73.7,81.37 72.97,80.65 71.89,80.65 L70.08,80.65 C68.99,80.65 68.27,79.92 68.27,78.84 L68.27,73.4 L90.05,73.4 C93.13,73.4 95.49,71.04 95.49,67.96 L95.49,24.42 C95.47,21.33 93.11,18.97 90.03,18.97 Z M53.37,80.67 C53.55,80.13 53.73,79.58 53.73,78.86 L53.73,73.42 L64.62,73.42 L64.62,78.86 C64.62,79.59 64.8,80.13 64.98,80.67 L53.37,80.67 Z" id="Shape" fill="#76ABDC"></path>
                <path d="M86.4,58.9 L46.48,58.9 C45.39,58.9 44.67,59.63 44.67,60.71 C44.67,61.8 45.4,62.52 46.48,62.52 L86.4,62.52 C87.49,62.52 88.21,61.79 88.21,60.71 C88.21,59.62 87.49,58.9 86.4,58.9" id="Shape" fill="#76ABDC"></path>
                <path d="M35.59,48.01 L21.07,48.01 C17.98,48.01 15.63,50.37 15.63,53.45 L15.63,78.86 C15.63,81.94 17.99,84.3 21.07,84.3 L35.59,84.3 C38.67,84.3 41.03,81.94 41.03,78.86 L41.03,53.45 C41.03,50.37 38.67,48.01 35.59,48.01 Z M37.4,78.86 C37.4,79.95 36.67,80.67 35.59,80.67 L21.07,80.67 C19.98,80.67 19.25,79.94 19.25,78.86 L19.25,53.45 C19.25,52.36 19.98,51.64 21.07,51.64 L35.59,51.64 C36.68,51.64 37.4,52.37 37.4,53.45 L37.4,78.86 Z" id="Shape" fill="#2D4286"></path>
            </g>
            <rect id="Rectangle-path" x="0.78" y="103.14" width="203.3" height="57.86"></rect>
            <g id="Group" transform="translate(3.653800, 99.502900)" fill="#666666" font-family="Helvetica" font-size="16" font-weight="normal">
                <text id="Ingresa-a-chedraui.c">
                    <tspan x="0.01171875" y="15">Ingresa a chedraui.com.mx</tspan>
                    <tspan x="23.5546875" y="34">o desde nuestra app</tspan>
                </text>
            </g>
            <rect id="Rectangle-path" x="265.81" y="103.14" width="203.3" height="57.86"></rect>
            <g id="Group" transform="translate(265.000000, 100.000000)" fill="#666666" font-family="Helvetica" font-size="16" font-weight="normal">
                <text id="Selecciona-el-método">
                    <tspan x="0.15234375" y="15">Selecciona el método entrega</tspan>
                    <tspan x="4.6171875" y="34">“Recoger en” y selecciona la</tspan>
                    <tspan x="21.9414062" y="53">tienda de tu preferencia</tspan>
                </text>
            </g>
            <g id="Group" transform="translate(315.000000, 2.000000)" fill-rule="nonzero">
                <path d="M25.94,21.31 L50.03,21.31 C47.96,9.62 37.75,0.74 25.46,0.74 C11.68,0.74 0.51,11.91 0.51,25.69 C0.51,39.47 11.68,50.64 25.46,50.64 C25.62,50.64 25.78,50.64 25.93,50.63 L25.93,21.31 L25.94,21.31 Z" id="Shape" fill="#E9EAEA"></path>
                <path d="M68.4,53.87 C67.48,53.87 66.73,54.62 66.73,55.54 C66.73,56.46 67.48,57.21 68.4,57.21 L88.33,57.21 C89.09,57.21 89.75,56.7 89.94,55.97 L98.6,23.44 C98.73,22.94 98.63,22.41 98.31,21.99 C97.99,21.58 97.51,21.34 96.99,21.34 L73.78,21.34 C72.96,15 67.53,10.09 60.97,10.09 C54.41,10.09 48.98,15 48.16,21.34 L29.04,21.34 L29.04,18.9 C29.04,15.55 26.32,12.83 22.97,12.83 L14.9,12.83 C13.98,12.83 13.23,13.58 13.23,14.5 C13.23,15.42 13.98,16.17 14.9,16.17 L22.97,16.17 C24.48,16.17 25.7,17.4 25.7,18.9 L25.7,47.83 C25.7,50.65 26.95,53.18 28.93,54.9 C26.53,56.27 24.9,58.85 24.9,61.8 C24.9,66.18 28.46,69.74 32.84,69.74 L33.25,69.74 C32.01,71.28 31.26,73.23 31.26,75.35 C31.26,80.28 35.28,84.3 40.21,84.3 C45.14,84.3 49.16,80.29 49.16,75.35 C49.16,73.23 48.42,71.27 47.18,69.74 L67.72,69.74 C67.71,69.75 67.7,69.76 67.7,69.77 C66.21,71.64 65.53,73.97 65.8,76.35 C66.3,80.81 70.18,84.3 74.68,84.3 C77.39,84.3 80,83.05 81.69,80.93 C83.18,79.06 83.86,76.73 83.59,74.35 C83.39,72.59 82.7,71.02 81.66,69.74 L88.33,69.74 C89.25,69.74 90,68.99 90,68.07 C90,67.15 89.25,66.4 88.33,66.4 L32.85,66.4 C30.31,66.4 28.25,64.34 28.25,61.8 C28.25,59.26 30.31,57.2 32.85,57.2 L35.07,57.2 L35.08,57.2 L53.74,57.2 C54.66,57.2 55.41,56.45 55.41,55.53 C55.41,54.61 54.66,53.86 53.74,53.86 L35.08,53.86 C31.79,53.86 29.04,51.11 29.04,47.83 L29.04,24.67 L48.15,24.67 C48.97,31.02 54.57,35.92 60.96,35.92 C67.35,35.92 72.95,31.01 73.77,24.67 L94.8,24.67 L87.03,53.86 L68.4,53.86 L68.4,53.87 Z M45.84,75.35 C45.84,78.44 43.32,80.96 40.23,80.96 C37.14,80.96 34.62,78.44 34.62,75.35 C34.62,72.26 37.14,69.74 40.23,69.74 C43.32,69.74 45.84,72.26 45.84,75.35 Z M80.27,74.73 C80.44,76.22 80.01,77.68 79.08,78.86 C78.15,80.03 76.81,80.77 75.32,80.94 C72.24,81.29 69.46,79.06 69.12,75.99 C68.75,72.7 71.41,69.75 74.71,69.75 C77.53,69.75 79.95,71.87 80.27,74.73 Z M60.98,13.42 C66.26,13.42 70.56,17.72 70.56,23 C70.56,28.28 66.26,32.58 60.98,32.58 C55.7,32.58 51.4,28.28 51.4,23 C51.39,17.72 55.69,13.42 60.98,13.42 Z" id="Shape" fill="#76ABDC"></path>
                <path d="M55.94,24.5 L58.83,24.5 L58.83,27.39 C58.83,28.31 59.58,29.06 60.5,29.06 C61.42,29.06 62.17,28.31 62.17,27.39 L62.17,24.5 L65.06,24.5 C65.98,24.5 66.73,23.75 66.73,22.83 C66.73,21.91 65.98,21.16 65.06,21.16 L62.17,21.16 L62.17,18.27 C62.17,17.35 61.42,16.6 60.5,16.6 C59.58,16.6 58.83,17.35 58.83,18.27 L58.83,21.16 L55.94,21.16 C55.02,21.16 54.27,21.91 54.27,22.83 C54.27,23.75 55.02,24.5 55.94,24.5" id="Shape" fill="#2D4286"></path>
                <path d="M62.27,54.56 C61.87,53.95 61.09,53.68 60.4,53.89 C59.71,54.1 59.22,54.76 59.22,55.49 C59.22,56.96 61.08,57.71 62.09,56.64 C62.62,56.08 62.7,55.21 62.27,54.56" id="Shape" fill="#2D4286"></path>
            </g>
            <g id="Group" transform="translate(58.000000, 228.000000)" fill-rule="nonzero">
                <path d="M77.4,15.93 L59.68,15.93 C61.2,7.33 68.71,0.8 77.74,0.8 C87.87,0.8 96.09,9.01 96.09,19.15 C96.09,29.28 87.88,37.5 77.74,37.5 C77.62,37.5 77.51,37.5 77.39,37.5 L77.39,15.93 L77.4,15.93 Z" id="Shape" fill="#E9EAEA"></path>
                <path d="M77.73,71.81 C77.73,77.46 73.25,82.04 67.73,82.04 C62.21,82.04 57.73,77.46 57.73,71.81 C57.73,66.16 62.21,61.58 67.73,61.58 C73.25,61.57 77.73,66.15 77.73,71.81" id="Shape" fill="#A5CDE2"></path>
                <path d="M1.42,66.95 C2.1,66.95 2.65,66.4 2.65,65.72 L2.65,29.99 L75.14,29.99 L75.14,43.48 C75.14,44.16 75.69,44.71 76.37,44.71 C77.05,44.71 77.6,44.16 77.6,43.48 L77.6,19.23 C77.6,15.12 74.25,11.77 70.14,11.77 L66.92,11.77 L66.92,10.25 C66.92,8.61 65.58,7.27 63.94,7.27 L61.66,7.27 C60.02,7.27 58.68,8.61 58.68,10.25 L58.68,11.77 L50.54,11.77 L50.54,10.25 C50.54,8.61 49.2,7.27 47.56,7.27 L45.28,7.27 C43.64,7.27 42.3,8.61 42.3,10.25 L42.3,11.77 L34.16,11.77 L34.16,10.25 C34.16,8.61 32.82,7.27 31.18,7.27 L28.9,7.27 C27.26,7.27 25.92,8.61 25.92,10.25 L25.92,11.77 L17.78,11.77 L17.78,10.25 C17.78,8.61 16.44,7.27 14.8,7.27 L12.52,7.27 C10.88,7.27 9.54,8.61 9.54,10.25 L9.54,11.77 L7.65,11.77 C3.54,11.77 0.19,15.12 0.19,19.23 L0.19,65.73 C0.19,66.4 0.74,66.95 1.42,66.95 Z M61.12,10.24 C61.12,9.95 61.36,9.71 61.65,9.71 L63.93,9.71 C64.22,9.71 64.46,9.95 64.46,10.24 L64.46,16.2 C64.46,16.49 64.22,16.73 63.93,16.73 L61.65,16.73 C61.36,16.73 61.12,16.49 61.12,16.2 L61.12,10.24 Z M44.75,10.24 C44.75,9.95 44.99,9.71 45.28,9.71 L47.56,9.71 C47.85,9.71 48.09,9.95 48.09,10.24 L48.09,16.2 C48.09,16.49 47.85,16.73 47.56,16.73 L45.28,16.73 C44.99,16.73 44.75,16.49 44.75,16.2 L44.75,10.24 Z M28.37,10.24 C28.37,9.95 28.61,9.71 28.9,9.71 L31.18,9.71 C31.47,9.71 31.71,9.95 31.71,10.24 L31.71,16.2 C31.71,16.49 31.47,16.73 31.18,16.73 L28.9,16.73 C28.61,16.73 28.37,16.49 28.37,16.2 L28.37,10.24 Z M11.99,10.24 C11.99,9.95 12.23,9.71 12.52,9.71 L14.8,9.71 C15.09,9.71 15.33,9.95 15.33,10.24 L15.33,16.2 C15.33,16.49 15.09,16.73 14.8,16.73 L12.52,16.73 C12.23,16.73 11.99,16.49 11.99,16.2 L11.99,10.24 Z M7.65,14.22 L9.54,14.22 L9.54,16.21 C9.54,17.85 10.88,19.19 12.52,19.19 L14.8,19.19 C16.44,19.19 17.78,17.85 17.78,16.21 L17.78,14.22 L25.92,14.22 L25.92,16.21 C25.92,17.85 27.26,19.19 28.9,19.19 L31.18,19.19 C32.82,19.19 34.16,17.85 34.16,16.21 L34.16,14.22 L42.3,14.22 L42.3,16.21 C42.3,17.85 43.64,19.19 45.28,19.19 L47.56,19.19 C49.2,19.19 50.54,17.85 50.54,16.21 L50.54,14.22 L58.68,14.22 L58.68,16.21 C58.68,17.85 60.02,19.19 61.66,19.19 L63.94,19.19 C65.58,19.19 66.92,17.85 66.92,16.21 L66.92,14.22 L70.14,14.22 C72.9,14.22 75.15,16.47 75.15,19.23 L75.15,27.54 L2.65986769,27.54 L2.66,19.23 C2.64,16.46 4.89,14.22 7.65,14.22 Z" id="Shape" fill="#76ABDC"></path>
                <path d="M14.08,78.36 L3.38,78.36 C2.97,78.36 2.64,78.03 2.64,77.62 L2.64,71.31 C2.64,70.63 2.09,70.08 1.41,70.08 C0.73,70.08 0.18,70.63 0.18,71.31 L0.18,77.62 C0.18,79.38 1.61,80.81 3.37,80.81 L14.07,80.81 C14.75,80.81 15.3,80.26 15.3,79.58 C15.31,78.9 14.76,78.36 14.08,78.36" id="Shape" fill="#76ABDC"></path>
                <path d="M14.04,33.56 L9.78,33.56 C9.1,33.56 8.55,34.11 8.55,34.79 C8.55,35.47 9.1,36.02 9.78,36.02 L14.04,36.02 C14.72,36.02 15.27,35.47 15.27,34.79 C15.27,34.11 14.72,33.56 14.04,33.56" id="Shape" fill="#68A7DD"></path>
                <path d="M22.88,36.02 L27.14,36.02 C27.82,36.02 28.37,35.47 28.37,34.79 C28.37,34.11 27.82,33.56 27.14,33.56 L22.88,33.56 C22.2,33.56 21.65,34.11 21.65,34.79 C21.65,35.47 22.2,36.02 22.88,36.02" id="Shape" fill="#68A7DD"></path>
                <path d="M35.99,36.02 L40.25,36.02 C40.93,36.02 41.48,35.47 41.48,34.79 C41.48,34.11 40.93,33.56 40.25,33.56 L35.99,33.56 C35.31,33.56 34.76,34.11 34.76,34.79 C34.76,35.47 35.31,36.02 35.99,36.02" id="Shape" fill="#68A7DD"></path>
                <path d="M49.09,36.02 L53.35,36.02 C54.03,36.02 54.58,35.47 54.58,34.79 C54.58,34.11 54.03,33.56 53.35,33.56 L49.09,33.56 C48.41,33.56 47.86,34.11 47.86,34.79 C47.87,35.47 48.41,36.02 49.09,36.02" id="Shape" fill="#68A7DD"></path>
                <path d="M66.46,33.56 L62.2,33.56 C61.52,33.56 60.97,34.11 60.97,34.79 C60.97,35.47 61.52,36.02 62.2,36.02 L66.46,36.02 C67.14,36.02 67.69,35.47 67.69,34.79 C67.69,34.11 67.14,33.56 66.46,33.56" id="Shape" fill="#68A7DD"></path>
                <path d="M14.04,39.73 L9.78,39.73 C9.1,39.73 8.55,40.28 8.55,40.96 C8.55,41.64 9.1,42.19 9.78,42.19 L14.04,42.19 C14.72,42.19 15.27,41.64 15.27,40.96 C15.27,40.28 14.72,39.73 14.04,39.73" id="Shape" fill="#68A7DD"></path>
                <path d="M22.88,42.19 L27.14,42.19 C27.82,42.19 28.37,41.64 28.37,40.96 C28.37,40.28 27.82,39.73 27.14,39.73 L22.88,39.73 C22.2,39.73 21.65,40.28 21.65,40.96 C21.65,41.64 22.2,42.19 22.88,42.19" id="Shape" fill="#68A7DD"></path>
                <path d="M35.99,42.19 L40.25,42.19 C40.93,42.19 41.48,41.64 41.48,40.96 C41.48,40.28 40.93,39.73 40.25,39.73 L35.99,39.73 C35.31,39.73 34.76,40.28 34.76,40.96 C34.76,41.64 35.31,42.19 35.99,42.19" id="Shape" fill="#68A7DD"></path>
                <path d="M49.09,42.19 L53.35,42.19 C54.03,42.19 54.58,41.64 54.58,40.96 C54.58,40.28 54.03,39.73 53.35,39.73 L49.09,39.73 C48.41,39.73 47.86,40.28 47.86,40.96 C47.86,41.64 48.41,42.19 49.09,42.19" id="Shape" fill="#68A7DD"></path>
                <path d="M66.46,39.73 L62.2,39.73 C61.52,39.73 60.97,40.28 60.97,40.96 C60.97,41.64 61.52,42.19 62.2,42.19 L66.46,42.19 C67.14,42.19 67.69,41.64 67.69,40.96 C67.69,40.28 67.14,39.73 66.46,39.73" id="Shape" fill="#68A7DD"></path>
                <path d="M22.91,66.27 L29.22,72.58 C30.13,73.49 31.35,73.99 32.64,73.99 C33.93,73.99 35.14,73.49 36.06,72.58 L53.34,55.3 C55.22,53.42 55.22,50.35 53.34,48.47 C51.46,46.59 48.39,46.59 46.51,48.47 L32.65,62.33 L29.76,59.44 C27.88,57.56 24.81,57.56 22.93,59.44 C21.03,61.32 21.03,64.39 22.91,66.27 M24.64,61.17 C25.1,60.71 25.71,60.47 26.32,60.47 C26.93,60.47 27.54,60.7 28,61.17 L31.76,64.93 C32.24,65.41 33.02,65.41 33.5,64.93 L48.23,50.2 C49.16,49.27 50.67,49.27 51.59,50.2 C52.52,51.13 52.52,52.64 51.59,53.56 L34.31,70.84 C33.86,71.29 33.26,71.54 32.63,71.54 C31.99,71.54 31.4,71.29 30.95,70.84 L24.64,64.53 C23.72,63.61 23.72,62.1 24.64,61.17" id="Shape" fill="#76ABDC"></path>
                <path d="M77.59,58.85 L77.59,49.06 C77.59,48.38 77.04,47.83 76.36,47.83 C75.68,47.83 75.13,48.38 75.13,49.06 L75.13,57.29 C72.89,56.13 70.35,55.47 67.67,55.47 C58.69,55.47 51.39,62.77 51.39,71.75 C51.39,74.1 51.89,76.34 52.79,78.36 L19.67,78.36 C18.99,78.36 18.44,78.91 18.44,79.59 C18.44,80.27 18.99,80.82 19.67,80.82 L54.15,80.82 C57.08,85.17 62.04,88.04 67.67,88.04 C76.65,88.04 83.95,80.74 83.95,71.76 C83.95,66.5 81.45,61.83 77.59,58.85 M67.67,85.57 C60.05,85.57 53.85,79.37 53.85,71.75 C53.85,64.13 60.05,57.93 67.67,57.93 C75.29,57.93 81.49,64.13 81.49,71.75 C81.49,79.37 75.29,85.57 67.67,85.57" id="Shape" fill="#76ABDC"></path>
                <path d="M67.67,59.7 C61.02,59.7 55.62,65.11 55.62,71.75 C55.62,78.39 61.03,83.8 67.67,83.8 C74.31,83.8 79.72,78.39 79.72,71.75 C79.72,65.1 74.31,59.7 67.67,59.7 M68.77,81.28 C68.85,81.12 68.9,80.93 68.9,80.74 L68.9,79.25 C68.9,78.57 68.35,78.02 67.67,78.02 C66.99,78.02 66.44,78.57 66.44,79.25 L66.44,80.74 C66.44,80.94 66.49,81.12 66.57,81.28 C62.15,80.77 58.64,77.26 58.14,72.85 C58.3,72.93 58.49,72.98 58.68,72.98 L60.17,72.98 C60.85,72.98 61.4,72.43 61.4,71.75 C61.4,71.07 60.85,70.52 60.17,70.52 L58.68,70.52 C58.48,70.52 58.3,70.57 58.14,70.65 C58.65,66.23 62.16,62.72 66.57,62.22 C66.49,62.38 66.44,62.57 66.44,62.76 L66.44,64.25 C66.44,64.93 66.99,65.48 67.67,65.48 C68.35,65.48 68.9,64.93 68.9,64.25 L68.9,62.76 C68.9,62.56 68.85,62.38 68.77,62.22 C73.19,62.73 76.7,66.24 77.2,70.65 C77.04,70.57 76.85,70.52 76.66,70.52 L75.17,70.52 C74.49,70.52 73.94,71.07 73.94,71.75 C73.94,72.43 74.49,72.98 75.17,72.98 L76.66,72.98 C76.86,72.98 77.04,72.93 77.2,72.85 C76.69,77.26 73.18,80.78 68.77,81.28" id="Shape" fill="#2D4286"></path>
                <path d="M70.37,70.52 L68.89,70.52 L68.89,69.26 C68.89,68.58 68.34,68.03 67.66,68.03 C66.98,68.03 66.43,68.58 66.43,69.26 L66.43,71.75 C66.43,72.43 66.98,72.98 67.66,72.98 L70.36,72.98 C71.04,72.98 71.59,72.43 71.59,71.75 C71.59,71.07 71.05,70.52 70.37,70.52" id="Shape" fill="#2D4286"></path>
            </g>
            <rect id="Rectangle-path" x="536" y="102.69" width="176" height="41.31"></rect>
            <g id="Group" transform="translate(541.000000, 99.000000)" fill="#666666" font-family="Helvetica" font-size="16" font-weight="normal">
                <text id="Agrega-los-productos">
                    <tspan x="17.3984375" y="15">Agrega los productos</tspan>
                    <tspan x="0.0625" y="34">de tu preferencia al carrito</tspan>
                </text>
            </g>
            <rect id="Rectangle-path" x="3.27" y="331.16" width="179.39" height="46.84"></rect>
            <g id="Group" transform="translate(11.729500, 327.515600)" fill="#666666" font-family="Helvetica" font-size="16" font-weight="normal">
                <text id="Programa-la-fecha-y">
                    <tspan x="0.17578125" y="15">Programa la fecha y hora</tspan>
                    <tspan x="23.2851562" y="34">de tu conveniencia</tspan>
                </text>
            </g>
            <g id="Group" transform="translate(586.000000, 2.000000)" fill-rule="nonzero">
                <path d="M59.97,35.81 L42.04,35.81 C43.58,27.11 51.18,20.5 60.32,20.5 C70.57,20.5 78.88,28.81 78.88,39.06 C78.88,49.31 70.57,57.62 60.32,57.62 C60.2,57.62 60.08,57.62 59.97,57.62 L59.97,35.81 Z" id="Shape" fill="#E9EAEA"></path>
                <path d="M40.44,11.73 C40.44,17.07 36.13,21.41 30.82,21.41 C25.51,21.41 21.2,17.08 21.2,11.73 C21.2,6.39 25.51,2.05 30.82,2.05 C36.13,2.05 40.44,6.38 40.44,11.73" id="Shape" fill="#A5CDE2"></path>
                <path d="M56.12,33.98 C54.99,33.91 53.86,34.17 52.88,34.75 L52.88,32.55 C52.89,30.52 51.8,28.63 50.03,27.63 C48.26,26.63 46.09,26.66 44.35,27.72 C44.17,25.82 43.02,24.14 41.32,23.27 C39.61,22.4 37.58,22.47 35.94,23.45 L35.94,21.11 C39.44,19.12 41.6,15.4 41.59,11.37 C41.59,5.13 36.53,0.07 30.29,0.07 C24.05,0.07 18.99,5.13 18.99,11.37 C18.98,15.4 21.13,19.12 24.64,21.11 L24.64,43.84 C24.68,45.51 24.45,47.17 23.97,48.76 C23.82,49.23 23.43,49.59 22.95,49.71 C22.5,49.82 22.02,49.7 21.68,49.38 C20.58,48.33 19.6,47.15 18.76,45.88 C16.31,42.21 10.14,35.37 6.28,35.37 C4.11,35.32 2.12,36.55 1.18,38.51 C0.53,40.26 1.04,42.23 2.46,43.43 C5.16,46.13 10.7,55.86 13.44,62.73 C15.31,67.41 19.42,72 22.54,75.03 C23.88,76.35 24.64,78.16 24.63,80.04 L24.63,80.56 C24.63,82.9 26.53,84.8 28.87,84.8 L51.46,84.8 C53.8,84.8 55.7,82.9 55.7,80.56 L55.7,76.22 C55.69,75.86 55.82,75.51 56.08,75.26 C61.29,70.49 61.35,62.54 61.35,62.2 L61.35,39.85 C61.41,36.83 59.13,34.27 56.12,33.98 M30.29,5.72 C27.17,5.72 24.64,8.25 24.64,11.37 L24.64,17.69 C22.83,16.09 21.8,13.78 21.82,11.37 C21.82,6.69 25.61,2.9 30.29,2.9 C34.97,2.9 38.76,6.69 38.76,11.37 C38.77,13.79 37.74,16.09 35.94,17.69 L35.94,11.37 C35.94,8.25 33.41,5.72 30.29,5.72" id="Shape" fill="#76ABDC"></path>
                <path d="M16.4,47.46 C17.36,48.91 18.48,50.25 19.74,51.45 C20.78,52.43 22.25,52.82 23.64,52.47 C25.05,52.12 26.19,51.07 26.65,49.69 C27.23,47.8 27.51,45.84 27.47,43.86 L27.47,11.37 C27.47,9.81 28.73,8.55 30.29,8.55 C31.85,8.55 33.11,9.81 33.11,11.37 L33.11,41.02 C33.11,41.8 33.74,42.43 34.52,42.43 C35.3,42.43 35.93,41.8 35.93,41.02 L35.93,28.32 C35.93,26.76 37.19,25.5 38.75,25.5 C40.31,25.5 41.58,26.76 41.58,28.32 L41.58,41.03 C41.58,41.81 42.21,42.44 42.99,42.44 C43.77,42.44 44.4,41.81 44.4,41.03 L44.4,32.56 C44.4,31 45.66,29.74 47.22,29.74 C48.78,29.74 50.04,31 50.04,32.56 L50.04,42.44 C50.04,43.22 50.67,43.85 51.45,43.85 C52.23,43.85 52.86,43.22 52.86,42.44 L52.86,39.62 C52.86,38.87 53.16,38.15 53.69,37.62 C54.27,37.04 55.08,36.74 55.89,36.8 C57.42,37 58.54,38.32 58.51,39.86 L58.51,62.22 C58.51,62.29 58.44,69.28 54.16,73.2 C53.32,73.99 52.85,75.09 52.87,76.24 L52.87,80.58 C52.87,81.36 52.24,81.99 51.46,81.99 L28.87,81.99 C28.09,81.99 27.46,81.36 27.46,80.58 L27.46,80.06 C27.46,77.41 26.4,74.88 24.51,73.02 C22.12,70.7 17.84,66.13 16.06,61.69 C13.15,54.43 7.4,44.4 4.45,41.45 C3.78,40.78 3.55,40.16 3.78,39.6 C4.29,38.71 5.25,38.18 6.27,38.21 C8.2,38.2 13.4,42.96 16.4,47.46" id="Shape" fill="#FFFFFF"></path>
                <path d="M54.29,60.8 C55.07,60.8 55.7,60.17 55.7,59.39 L55.7,50.92 C55.7,50.14 55.07,49.51 54.29,49.51 C53.51,49.51 52.88,50.14 52.88,50.92 L52.88,59.39 C52.88,60.17 53.51,60.8 54.29,60.8" id="Shape" fill="#2D4286"></path>
                <path d="M52.88,69.27 C53.25,69.27 53.61,69.12 53.88,68.86 C54.95,67.87 55.61,66.5 55.71,65.04 C55.71,64.28 55.1,63.66 54.33,63.65 C53.56,63.64 52.92,64.24 52.88,65.01 C52.77,65.73 52.42,66.39 51.88,66.87 C51.48,67.27 51.36,67.88 51.57,68.41 C51.8,68.93 52.31,69.27 52.88,69.27" id="Shape" fill="#2D4286"></path>
                <path d="M31.7,79.16 L33.11,79.16 C33.89,79.16 34.52,78.53 34.52,77.75 C34.52,76.97 33.89,76.34 33.11,76.34 L31.7,76.34 C30.92,76.34 30.29,76.97 30.29,77.75 C30.29,78.52 30.92,79.16 31.7,79.16" id="Shape" fill="#2D4286"></path>
                <path d="M38.76,79.16 L48.65,79.16 C49.43,79.16 50.06,78.53 50.06,77.75 C50.06,76.97 49.43,76.34 48.65,76.34 L38.76,76.34 C37.98,76.34 37.35,76.97 37.35,77.75 C37.35,78.52 37.98,79.16 38.76,79.16" id="Shape" fill="#2D4286"></path>
                <path d="M18.99,23.43 C19.55,23.43 20.06,23.1 20.29,22.58 C20.51,22.06 20.41,21.46 20.02,21.05 C15.13,15.88 14.86,7.87 19.4,2.39 C19.73,2 19.83,1.46 19.66,0.98 C19.49,0.5 19.06,0.15 18.56,0.07 C18.05,-0.01 17.54,0.19 17.23,0.59 C11.78,7.17 12.1,16.78 17.97,22.99 C18.23,23.27 18.6,23.43 18.99,23.43" id="Shape" fill="#2D4286"></path>
                <path d="M43.47,19.69 C43.8,19.86 44.19,19.89 44.55,19.78 C44.91,19.67 45.2,19.41 45.37,19.08 C48.46,13.07 47.66,5.79 43.35,0.59 C43.03,0.19 42.52,-0.01 42.02,0.07 C41.51,0.15 41.09,0.5 40.92,0.98 C40.74,1.46 40.84,2 41.18,2.39 C44.77,6.72 45.43,12.78 42.86,17.79 C42.5,18.48 42.77,19.34 43.47,19.69" id="Shape" fill="#2D4286"></path>
            </g>
            <rect id="Rectangle-path" x="265.46" y="330.78" width="203.3" height="42.22"></rect>
            <g id="Group" transform="translate(289.747100, 327.136700)" fill="#666666" font-family="Helvetica" font-size="16" font-weight="normal">
                <text id="Elige-pago-en-línea">
                    <tspan x="0.328125" y="15">Elige pago en línea o</tspan>
                    <tspan x="23.9101563" y="34">contra entrega</tspan>
                </text>
            </g>
            <g id="Group" transform="translate(586.000000, 226.000000)" fill-rule="nonzero">
                <path d="M75.07,28.32 C75.07,13.11 62.74,0.77 47.52,0.77 C32.3,0.77 19.97,13.1 19.97,28.32 C19.97,43.53 32.3,55.87 47.52,55.87 C62.74,55.87 75.07,43.54 75.07,28.32" id="Shape" fill="#E9EAEA"></path>
                <path d="M47.8,4.94 C53.8,8.54 59.76,12.2 65.82,15.7 C67.54,16.7 68.18,17.84 68.14,19.82 C68.02,26 68.07,32.18 68.12,38.36 C68.13,39.75 67.65,40.61 66.43,41.29 C60.61,44.55 54.83,47.87 49.06,51.21 C47.98,51.83 47.08,51.89 45.99,51.25 C40.12,47.85 34.2,44.55 28.37,41.09 C27.67,40.67 27,39.54 26.98,38.73 C26.87,32.05 26.92,25.37 26.91,18.69 C26.91,17.51 27.4,16.76 28.43,16.15 C34.38,12.67 40.29,9.13 46.22,5.61 C46.55,5.42 46.83,5.16 47.14,4.93 L47.8,4.93 L47.8,4.94 Z M65.12,28.73 C65.12,25.89 65.08,23.05 65.14,20.21 C65.16,19.14 64.81,18.48 63.86,17.93 C58.77,14.96 53.7,11.93 48.65,8.89 C47.85,8.41 47.22,8.35 46.38,8.85 C41.28,11.93 36.14,14.93 31.06,18.03 C30.52,18.36 29.99,19.21 29.98,19.83 C29.9,25.73 29.9,31.63 29.98,37.53 C29.99,38.11 30.45,38.93 30.94,39.22 C36.12,42.26 41.35,45.23 46.6,48.16 C47.06,48.42 47.92,48.42 48.39,48.16 C53.64,45.24 58.86,42.26 64.04,39.22 C64.57,38.91 65.05,38.03 65.08,37.4 C65.18,34.52 65.12,31.63 65.12,28.73 Z" id="Shape" fill="#2D4286"></path>
                <path d="M65.12,28.73 C65.12,31.62 65.18,34.52 65.07,37.41 C65.05,38.04 64.57,38.92 64.03,39.23 C58.85,42.28 53.63,45.25 48.38,48.17 C47.91,48.43 47.06,48.43 46.59,48.17 C41.34,45.25 36.12,42.27 30.93,39.23 C30.43,38.94 29.97,38.12 29.97,37.54 C29.9,31.64 29.89,25.74 29.98,19.84 C29.99,19.22 30.52,18.37 31.06,18.04 C36.14,14.93 41.28,11.94 46.38,8.86 C47.22,8.35 47.85,8.41 48.65,8.9 C53.7,11.94 58.77,14.96 63.86,17.94 C64.8,18.49 65.16,19.14 65.14,20.22 C65.08,23.05 65.12,25.89 65.12,28.73 Z M48.92,29.63 C52.9,27.1 56.91,24.54 61.04,21.92 C60.44,21.03 59.94,20.27 59.4,19.46 C55.71,21.8 52.18,24.01 48.69,26.28 C47.87,26.81 47.26,26.84 46.44,26.28 C44.46,24.94 42.42,23.7 40.4,22.42 C38.87,21.45 37.32,20.5 35.7,19.48 C35.12,20.38 34.65,21.11 34.11,21.93 C38.25,24.57 42.27,27.13 46.11,29.57 L46.11,43.92 L48.92,43.92 L48.92,29.63 Z" id="Shape" fill="#A5CDE2"></path>
                <path d="M48.92,29.63 L48.92,43.93 L46.11,43.93 L46.11,29.58 C42.27,27.14 38.26,24.58 34.11,21.94 C34.65,21.11 35.11,20.39 35.7,19.49 C37.33,20.51 38.87,21.46 40.4,22.43 C42.42,23.7 44.46,24.95 46.44,26.29 C47.26,26.85 47.87,26.82 48.69,26.29 C52.18,24.02 55.71,21.81 59.4,19.47 C59.94,20.29 60.45,21.04 61.04,21.93 C56.91,24.55 52.89,27.1 48.92,29.63" id="Shape" fill="#2D4286"></path>
                <path d="M50.77,86.88 C50.78,83.35 50.87,79.83 50.76,76.31 C50.71,74.71 51.11,73.95 52.8,74.19 C53.11,74.23 53.45,74.08 53.94,73.98 C53.94,71.8 53.96,69.65 53.94,67.5 C53.88,62.98 54.96,58.95 58.69,55.99 C59.27,55.53 59.8,55 60.26,54.42 C62.21,51.93 64.8,50.82 67.88,50.44 C68.85,50.32 69.89,49.72 70.64,49.05 C72.47,47.43 74.07,45.56 75.92,43.96 C76.96,43.06 78.3,42.51 79.5,41.81 C79.83,41.62 80.42,41.5 80.47,41.26 C80.94,39.13 81.91,36.9 81.61,34.86 C80.97,30.51 81.6,26.72 84.57,23.45 C85.32,22.63 86.25,21.89 87.23,21.37 C89.95,19.94 91.34,20.48 91.99,23.41 C92.92,27.61 93.6,31.87 94.39,36.1 C94.49,36.65 94.66,37.19 94.79,37.73 L94.79,41.14 C94.67,41.63 94.5,42.12 94.45,42.62 C94.17,45.61 93.88,48.61 93.69,51.61 C93.49,54.77 92.57,57.36 90.01,59.61 C85.54,63.54 81.44,67.9 77.2,72.09 C76.7,72.59 76.28,73.17 75.56,74.03 C77.15,74.15 78.35,74.25 79.76,74.36 L79.76,86.89 L76.69,86.89 C76.71,84.17 76.67,81.44 76.76,78.72 C76.8,77.52 76.37,77.17 75.19,77.18 C68.5,77.22 61.8,77.2 55.11,77.21 C54.73,77.21 54.35,77.29 53.82,77.34 L53.82,86.89 L50.77,86.89 L50.77,86.88 Z M73.52,59.12 C76.49,56.08 79.39,53.12 82.28,50.14 C83.89,48.48 84,46.86 82.63,45.52 C81.34,44.25 79.76,44.37 78.14,45.94 C76.14,47.88 74.23,49.91 72.15,51.77 C71.35,52.49 70.22,53.23 69.22,53.27 C66.01,53.41 63.63,54.85 61.67,57.25 C61.1,57.95 60.43,58.59 59.74,59.18 C58.11,60.56 57.35,62.38 57.2,64.4 C57,67.12 57.06,69.85 56.93,72.57 C56.87,73.86 57.4,74.24 58.63,74.22 C62.55,74.17 66.48,74.15 70.4,74.23 C71.8,74.26 72.7,74.04 73.17,72.49 C73.44,71.58 74.26,70.78 74.98,70.07 C79.65,65.42 84.39,60.82 89.04,56.16 C89.64,55.56 90.22,54.68 90.31,53.87 C91.12,46.61 92.41,39.35 90.76,32.03 C90.16,29.36 89.67,26.66 89.12,23.89 C85.57,25.56 83.67,29.49 84.59,33.55 C85.03,35.48 84.88,37.2 84.29,38.99 C84.08,39.64 84.02,40.34 83.76,40.96 C83.36,41.91 83.65,42.44 84.43,43.1 C86.96,45.24 87.49,48.78 85.34,51.16 C82.23,54.6 78.81,57.76 75.35,61.21 C74.67,60.44 74.09,59.77 73.52,59.12 Z" id="Shape" fill="#76ABDC"></path>
                <path d="M0.25,37.73 C0.73,34.94 1.15,32.15 1.71,29.38 C2.22,26.88 2.8,24.39 3.54,21.96 C3.7,21.43 4.76,20.69 5.19,20.81 C6.77,21.27 8.55,21.71 9.73,22.76 C13.28,25.92 14.18,29.99 13.48,34.69 C13.17,36.76 13.94,39 14.31,41.15 C14.36,41.41 15.03,41.56 15.41,41.77 C16.67,42.49 18.05,43.06 19.16,43.97 C20.73,45.27 22.21,46.72 23.53,48.27 C24.88,49.86 26.52,50.59 28.53,50.75 C30.67,50.91 32.43,51.82 33.83,53.47 C34.71,54.51 35.64,55.53 36.68,56.4 C39.84,59.05 40.73,62.58 40.77,66.46 C40.8,68.95 40.78,71.44 40.78,73.79 C41.01,73.96 41.05,74.01 41.1,74.02 C43.95,74.61 43.95,74.61 43.95,77.66 C43.95,80.73 43.94,83.8 43.93,86.87 L40.86,86.87 L40.86,77.46 C40.64,77.35 40.55,77.25 40.45,77.25 C33.31,77.23 26.16,77.19 19.02,77.25 C18.67,77.25 18.03,78.08 18.02,78.54 C17.93,81.32 17.98,84.1 17.99,86.87 L14.92,86.87 L14.92,74.33 C16.53,74.22 17.8,74.14 19.49,74.02 C18.71,73.11 18.24,72.49 17.7,71.95 C12.97,67.28 8.2,62.66 3.53,57.94 C2.72,57.12 2.05,55.91 1.83,54.79 C1.37,52.46 1.26,50.07 0.99,47.7 C0.75,45.51 0.49,43.33 0.24,41.14 L0.24,37.73 L0.25,37.73 Z M5.97,23.91 C4.7,29.37 3.43,34.67 3.46,40.13 C3.48,43.7 4.06,47.26 4.29,50.83 C4.47,53.59 5.31,55.83 7.5,57.8 C11.77,61.63 15.77,65.76 19.81,69.85 C20.78,70.83 21.4,72.16 22.27,73.26 C22.6,73.67 23.16,74.17 23.62,74.17 C27.88,74.24 32.15,74.2 36.41,74.22 C37.45,74.23 37.81,73.79 37.8,72.78 C37.76,70.68 37.82,68.57 37.78,66.47 C37.73,63.36 37.05,60.52 34.45,58.43 C33.44,57.61 32.56,56.61 31.72,55.62 C30.7,54.43 29.47,53.75 27.9,53.67 C25.27,53.53 23.17,52.43 21.42,50.42 C19.89,48.67 18.18,47.07 16.44,45.52 C14.67,43.94 12.04,44.67 11.67,46.94 C11.51,47.91 12.08,49.29 12.78,50.07 C15.61,53.17 18.62,56.11 21.65,59.19 C21.01,59.8 20.33,60.44 19.44,61.28 C16.22,57.99 13.07,54.87 10.05,51.63 C7.76,49.18 7.9,45.66 10.36,43.38 C11.27,42.53 11.33,41.8 11.07,40.71 C10.46,38.21 9.93,35.8 10.49,33.07 C11.29,29.01 9.4,25.58 5.97,23.91 Z" id="Shape" fill="#76ABDC"></path>
                <path d="M18,86.88 C17.99,84.1 17.94,81.32 18.03,78.55 C18.04,78.09 18.68,77.26 19.03,77.26 C26.17,77.2 33.32,77.24 40.46,77.26 C40.56,77.26 40.65,77.35 40.87,77.47 L40.87,86.88 L18,86.88 Z" id="Shape" fill="#FFFFFF"></path>
                <path d="M53.84,86.88 L53.84,77.33 C54.37,77.27 54.75,77.2 55.13,77.2 C61.82,77.19 68.52,77.22 75.21,77.17 C76.38,77.16 76.81,77.51 76.77,78.71 C76.69,81.43 76.72,84.15 76.7,86.88 L53.84,86.88 Z" id="Shape" fill="#FFFFFF"></path>
                <path d="M73.52,59.12 C74.08,59.76 74.67,60.44 75.35,61.22 C78.81,57.77 82.23,54.61 85.34,51.17 C87.49,48.79 86.96,45.25 84.43,43.11 C83.65,42.45 83.36,41.92 83.76,40.97 C84.02,40.35 84.08,39.65 84.29,39 C84.88,37.21 85.02,35.49 84.59,33.56 C83.67,29.49 85.57,25.57 89.12,23.9 C89.68,26.67 90.16,29.37 90.76,32.04 C92.41,39.36 91.12,46.62 90.31,53.88 C90.22,54.69 89.64,55.57 89.04,56.17 C84.38,60.84 79.65,65.43 74.98,70.08 C74.27,70.79 73.44,71.59 73.17,72.5 C72.71,74.05 71.8,74.27 70.4,74.24 C66.48,74.16 62.55,74.18 58.63,74.23 C57.4,74.25 56.87,73.86 56.93,72.58 C57.06,69.86 57,67.12 57.2,64.41 C57.35,62.39 58.12,60.56 59.74,59.19 C60.43,58.6 61.1,57.96 61.67,57.26 C63.63,54.85 66,53.42 69.22,53.28 C70.23,53.24 71.35,52.5 72.15,51.78 C74.22,49.92 76.13,47.89 78.14,45.95 C79.76,44.38 81.34,44.26 82.63,45.53 C84,46.88 83.89,48.5 82.28,50.15 C79.4,53.12 76.49,56.08 73.52,59.12" id="Shape" fill="#FFFFFF"></path>
                <path d="M5.97,23.91 C9.4,25.58 11.29,29.02 10.47,33.07 C9.91,35.8 10.44,38.21 11.05,40.71 C11.32,41.8 11.26,42.53 10.34,43.38 C7.88,45.66 7.75,49.17 10.03,51.63 C13.05,54.87 16.2,57.99 19.42,61.28 C20.31,60.44 20.99,59.8 21.63,59.19 C18.6,56.11 15.59,53.17 12.76,50.07 C12.06,49.3 11.49,47.92 11.65,46.94 C12.02,44.67 14.65,43.94 16.42,45.52 C18.16,47.07 19.87,48.67 21.4,50.42 C23.15,52.43 25.25,53.53 27.88,53.67 C29.45,53.75 30.68,54.42 31.7,55.62 C32.55,56.61 33.42,57.61 34.43,58.43 C37.03,60.53 37.71,63.36 37.76,66.47 C37.79,68.57 37.74,70.68 37.78,72.78 C37.8,73.78 37.43,74.22 36.39,74.22 C32.13,74.19 27.86,74.24 23.6,74.17 C23.14,74.16 22.58,73.67 22.25,73.26 C21.38,72.16 20.76,70.84 19.79,69.85 C15.76,65.76 11.75,61.63 7.48,57.8 C5.29,55.83 4.44,53.6 4.27,50.83 C4.04,47.26 3.46,43.7 3.44,40.13 C3.43,34.67 4.7,29.36 5.97,23.91" id="Shape" fill="#FFFFFF"></path>
                <rect id="Rectangle-path" fill="#76ABDC" x="31.91" y="80.27" width="5.61" height="3.18"></rect>
                <rect id="Rectangle-path" fill="#76ABDC" x="57.04" y="80.27" width="5.61" height="3.18"></rect>
            </g>
            <rect id="Rectangle-path" x="535" y="330.78" width="186.23" height="42.22"></rect>
            <g id="Group" transform="translate(543.499000, 327.136700)" fill="#666666" font-family="Helvetica" font-size="16" font-weight="normal">
                <text id="Recoge-desde-la-tien">
                    <tspan x="0.4375" y="15">Recoge desde la tienda</tspan>
                    <tspan x="20.4570312" y="34">que seleccionaste</tspan>
                </text>
            </g>
            <circle id="Oval" fill="#A5CDE2" fill-rule="nonzero" cx="18.38" cy="15.93" r="14.93"></circle>
            <circle id="Oval" fill="#A5CDE2" fill-rule="nonzero" cx="289.98" cy="15.93" r="14.93"></circle>
            <circle id="Oval" fill="#A5CDE2" fill-rule="nonzero" cx="556.38" cy="15.59" r="14.93"></circle>
            <circle id="Oval" fill="#A5CDE2" fill-rule="nonzero" cx="18.98" cy="228.59" r="14.93"></circle>
            <circle id="Oval" fill="#A5CDE2" fill-rule="nonzero" cx="288.38" cy="228.45" r="14.93"></circle>
            <circle id="Oval" fill="#A5CDE2" fill-rule="nonzero" cx="557.98" cy="228.45" r="14.93"></circle>
            <polygon id="Shape" fill="#2D4286" fill-rule="nonzero" points="16.8 10.72 16.75 10.72 13.71 12.25 13.17 9.87 17.21 7.87 19.84 7.87 19.84 24.5 16.8 24.5"></polygon>
            <path d="M284.3,24.5 L284.3,22.58 L286.27,20.76 C290.18,17.13 292.02,15.13 292.05,12.93 C292.05,11.45 291.26,10.14 289.08,10.14 C287.62,10.14 286.37,10.88 285.53,11.52 L284.61,9.29 C285.81,8.32 287.63,7.58 289.72,7.58 C293.4,7.58 295.19,9.91 295.19,12.62 C295.19,15.54 293.09,17.89 290.2,20.57 L288.74,21.82 L288.74,21.87 L295.57,21.87 L295.57,24.48 L284.3,24.48 L284.3,24.5 Z" id="Shape" fill="#2D4286" fill-rule="nonzero"></path>
            <path d="M550.5,20.92 C551.14,21.3 552.7,21.94 554.29,21.94 C556.69,21.94 557.67,20.58 557.64,19.28 C557.64,17.31 555.8,16.47 553.88,16.47 L552.42,16.47 L552.42,14.17 L553.83,14.17 C555.29,14.17 557.13,13.5 557.13,11.84 C557.13,10.71 556.29,9.77 554.47,9.77 C553.12,9.77 551.76,10.36 551.07,10.82 L550.35,8.54 C551.3,7.88 553.14,7.26 555.13,7.26 C558.56,7.26 560.32,9.15 560.32,11.33 C560.32,13.07 559.3,14.5 557.25,15.22 L557.25,15.27 C559.27,15.63 560.91,17.16 560.91,19.41 C560.91,22.22 558.56,24.45 554.44,24.45 C552.42,24.45 550.68,23.89 549.78,23.3 L550.5,20.92 Z" id="Shape" fill="#2D4286" fill-rule="nonzero"></path>
            <path d="M20.24,237.17 L20.24,232.95 L12.72,232.95 L12.72,230.9 L19.5,220.54 L23.21,220.54 L23.21,230.57 L25.36,230.57 L25.36,232.95 L23.2,232.95 L23.2,237.17 L20.24,237.17 Z M20.24,230.57 L20.24,226.04 C20.24,225.09 20.26,224.12 20.34,223.15 L20.24,223.15 C19.73,224.2 19.29,225.04 18.78,225.96 L15.74,230.51 L15.72,230.56 L20.24,230.56 L20.24,230.57 Z" id="Shape" fill="#2D4286" fill-rule="nonzero"></path>
            <path d="M292.43,223.01 L286.04,223.01 L285.55,226.34 C285.93,226.29 286.27,226.26 286.75,226.26 C288.21,226.26 289.67,226.59 290.79,227.33 C292.04,228.12 292.96,229.53 292.96,231.55 C292.96,234.72 290.33,237.31 286.23,237.31 C284.31,237.31 282.7,236.82 281.83,236.34 L282.47,233.96 C283.19,234.34 284.62,234.83 286.13,234.83 C287.97,234.83 289.74,233.78 289.74,231.79 C289.74,229.9 288.33,228.64 285.01,228.64 C284.09,228.64 283.4,228.69 282.73,228.79 L283.83,220.4 L292.42,220.4 L292.42,223.01 L292.43,223.01 Z" id="Shape" fill="#2D4286" fill-rule="nonzero"></path>
            <path d="M562.43,222.63 C561.97,222.63 561.46,222.63 560.82,222.71 C557.34,223.12 555.65,225.27 555.24,227.57 L555.32,227.57 C556.14,226.62 557.39,225.96 559.05,225.96 C561.91,225.96 564.14,228.01 564.14,231.38 C564.14,234.55 561.81,237.32 558.28,237.32 C554.24,237.32 552.01,234.25 552.01,230.16 C552.01,226.96 553.16,224.35 554.9,222.69 C556.43,221.26 558.43,220.44 560.81,220.24 C561.5,220.16 562.01,220.16 562.39,220.19 L562.43,222.63 Z M558.29,234.95 C559.9,234.95 560.95,233.54 560.95,231.55 C560.95,229.61 559.9,228.25 558.06,228.25 C556.88,228.25 555.83,228.97 555.35,229.96 C555.22,230.22 555.15,230.52 555.15,230.96 C555.2,233.16 556.25,234.95 558.27,234.95 L558.29,234.95 Z" id="Shape" fill="#2D4286" fill-rule="nonzero"></path>
            <g id="Group" transform="translate(333.000000, 232.000000)" fill-rule="nonzero">
                <path d="M40.66,32.02 L16.74,32.02 C14.24,32.02 12.22,30 12.22,27.5 L12.22,16.9 C12.22,14.4 14.24,12.38 16.74,12.38 L40.66,12.38 C43.16,12.38 45.18,14.4 45.18,16.9 L45.18,27.5 C45.18,29.99 43.15,32.02 40.66,32.02 Z" id="Shape" fill="#A0CBE0"></path>
                <path d="M70.18,18.02 L60.88,18.02 C59.57,18.02 58.65,16.7 59.11,15.48 C61.2,9.98 66.62,6.13 72.91,6.38 C80.08,6.66 85.98,12.41 86.44,19.56 C86.98,27.88 80.31,34.79 72.06,34.64 L72.06,19.91 C72.06,18.87 71.22,18.02 70.18,18.02 Z" id="Shape" fill="#E9EAEA"></path>
                <path d="M53.74,53.53 C52.87,53.53 52.16,54.24 52.16,55.11 C52.16,55.98 52.87,56.69 53.74,56.69 C54.61,56.69 55.32,55.98 55.32,55.11 C55.32,54.24 54.61,53.53 53.74,53.53 Z" id="Shape" fill="#2D4286"></path>
                <path d="M32.21,51.94 C31.34,51.94 30.63,51.23 30.63,50.36 C30.63,49.49 31.34,48.78 32.21,48.78 C32.77,48.78 33.36,49.07 33.92,49.61 C34.55,50.22 35.55,50.2 36.16,49.57 C36.77,48.94 36.75,47.94 36.12,47.33 C35.32,46.55 34.51,46.11 33.79,45.87 L33.79,44.03 C33.79,43.16 33.08,42.45 32.21,42.45 C31.34,42.45 30.63,43.16 30.63,44.03 L30.63,45.89 C28.79,46.54 27.46,48.3 27.46,50.37 C27.46,52.99 29.59,55.12 32.21,55.12 C33.08,55.12 33.79,55.83 33.79,56.7 C33.79,57.57 33.08,58.28 32.21,58.28 C31.53,58.28 30.8,57.85 30.15,57.08 C29.59,56.41 28.59,56.32 27.92,56.89 C27.25,57.45 27.16,58.45 27.73,59.12 C28.58,60.13 29.57,60.83 30.63,61.18 L30.63,63.03 C30.63,63.9 31.34,64.61 32.21,64.61 C33.08,64.61 33.79,63.9 33.79,63.03 L33.79,61.17 C35.63,60.52 36.96,58.76 36.96,56.69 C36.96,54.07 34.83,51.94 32.21,51.94 Z" id="Shape" fill="#2D4286"></path>
                <path d="M19.54,26.61 C20.41,26.61 21.12,25.9 21.12,25.03 L21.12,18.7 C21.12,17.83 20.41,17.12 19.54,17.12 C18.67,17.12 17.96,17.83 17.96,18.7 L17.96,25.03 C17.96,25.91 18.67,26.61 19.54,26.61 Z" id="Shape" fill="#2D4286"></path>
                <path d="M75.27,37.7 L75.27,25.04 C75.27,20.67 71.72,17.12 67.35,17.12 L58.48,17.12 L58.48,5.09 C58.48,2.47 56.35,0.34 53.73,0.34 L24.28,0.34 C21.66,0.34 19.53,2.47 19.53,5.09 L19.53,10.79 L14.78,10.79 C12.16,10.79 10.03,12.92 10.03,15.54 L10.03,17.12 L8.45,17.12 C4.09,17.12 0.53,20.67 0.53,25.04 L0.53,73.48 C0.53,77.84 4.08,81.4 8.45,81.4 L56.89,81.4 C60.71,81.4 63.91,78.68 64.65,75.07 L67.34,75.07 C71.7,75.07 75.26,71.52 75.26,67.15 L75.26,63.03 L76.84,63.03 C79.46,63.03 81.59,60.9 81.59,58.28 L81.59,44.03 C81.6,40.54 78.76,37.7 75.27,37.7 Z M78.44,44.03 C78.44,45.78 77.02,47.2 75.27,47.2 L75.27,40.8699475 C77.01,40.86 78.44,42.28 78.44,44.03 Z M67.35,20.28 C69.97,20.28 72.1,22.41 72.1,25.03 L72.1,47.19 L64.82,47.19 L64.82,37.69 C64.82,33.87 62.1,30.67 58.49,29.93 L58.49,20.27 L67.35,20.27 L67.35,20.28 Z M22.71,5.08 C22.71,4.21 23.42,3.5 24.29,3.5 L53.74,3.5 C54.61,3.5 55.32,4.21 55.32,5.08 L55.32,29.78 L48.04,29.78 L48.04,15.53 C48.04,12.91 45.91,10.78 43.29,10.78 L22.71,10.78 L22.71,5.08 Z M38.54,29.78 L38.54,13.95 L43.29,13.95 C44.16,13.95 44.87,14.66 44.87,15.53 L44.87,29.78 L38.54,29.78 Z M29.04,29.78 L29.04,13.95 L35.37,13.95 L35.37,29.78 L29.04,29.78 Z M13.21,15.53 C13.21,14.66 13.92,13.95 14.79,13.95 L25.87,13.95 L25.87,29.78 L13.21,29.78 L13.21,15.53 Z M8.46,20.28 L10.04,20.28 L10.04,29.78 L8.8,29.78 C6.18,29.78 3.71,27.89 3.71,25.03 C3.71,22.41 5.84,20.28 8.46,20.28 Z M56.91,78.22 L8.47,78.22 C5.85,78.22 3.72,76.09 3.72,73.47 L3.72,31.26 C5.14,32.31 6.91,32.94 8.81,32.94 L56.91,32.94 C59.53,32.94 61.66,35.07 61.66,37.69 L61.66,47.19 L50.58,47.19 C47.96,47.19 45.83,49.32 45.83,51.94 L45.83,58.27 C45.83,60.89 47.96,63.02 50.58,63.02 L61.66,63.02 L61.66,73.47 C61.65,76.09 59.52,78.22 56.91,78.22 Z M72.1,67.14 C72.1,69.76 69.97,71.89 67.35,71.89 L64.82,71.89 L64.82,63.02 L72.1,63.02 L72.1,67.14 Z M76.85,59.86 L50.57,59.86 C49.7,59.86 48.99,59.15 48.99,58.28 L48.99,51.95 C48.99,51.08 49.7,50.37 50.57,50.37 L75.27,50.37 C76.4,50.37 77.48,50.07 78.44,49.52 L78.44,58.28 C78.44,59.15 77.73,59.86 76.85,59.86 Z" id="Shape" fill="#76ABDC"></path>
                <path d="M67.35,53.53 L60.07,53.53 C59.2,53.53 58.49,54.24 58.49,55.11 C58.49,55.98 59.2,56.69 60.07,56.69 L67.35,56.69 C68.22,56.69 68.93,55.98 68.93,55.11 C68.94,54.24 68.23,53.53 67.35,53.53 Z" id="Shape" fill="#2D4286"></path>
            </g>
        </g>
    </g>
</svg>